<?xml version="1.0" encoding="UTF-8" standalone="no"?>
<!DOCTYPE svg PUBLIC "-//W3C//DTD SVG 1.1//EN"
 "http://www.w3.org/Graphics/SVG/1.1/DTD/svg11.dtd">
<!-- Generated by graphviz version 13.1.0 (20250701.0955)
 -->
<!-- Title: fm11rfxx_basic_value_read Pages: 1 -->
<svg width="306pt" height="154pt"
 viewBox="0.00 0.00 306.00 154.00" xmlns="http://www.w3.org/2000/svg" xmlns:xlink="http://www.w3.org/1999/xlink">
<g id="graph0" class="graph" transform="scale(1 1) rotate(0) translate(4 150)">
<title>fm11rfxx_basic_value_read</title>
<!-- Node1 -->
<g id="Node000001" class="node">
<title>Node1</title>
<g id="a_Node000001"><a xlink:title="basic example read value">
<polygon fill="#999999" stroke="#666666" points="134.5,-86 0,-86 0,-66 134.5,-66 134.5,-86"/>
<text xml:space="preserve" text-anchor="middle" x="67.25" y="-72.5" font-family="Helvetica,sans-Serif" font-size="10.00">fm11rfxx_basic_value_read</text>
</a>
</g>
</g>
<!-- Node2 -->
<g id="Node000002" class="node">
<title>Node2</title>
<g id="a_Node000002"><a xlink:href="group__fm11rfxx__basic__driver.html#ga5e39f4a3578e59cf6d1ab61b36e44fc6" target="_top" xlink:title="fm11rfxx authentication">
<polygon fill="white" stroke="#666666" points="294.12,-146 174.62,-146 174.62,-126 294.12,-126 294.12,-146"/>
<text xml:space="preserve" text-anchor="middle" x="234.38" y="-132.5" font-family="Helvetica,sans-Serif" font-size="10.00">fm11rfxx_authentication</text>
</a>
</g>
</g>
<!-- Node1&#45;&gt;Node2 -->
<g id="edge1_Node000001_Node000002" class="edge">
<title>Node1&#45;&gt;Node2</title>
<g id="a_edge1_Node000001_Node000002"><a xlink:title=" ">
<path fill="none" stroke="#63b8ff" d="M92.4,-86.38C112.98,-95.06 143.43,-107.5 170.5,-117 175.55,-118.77 180.86,-120.53 186.16,-122.22"/>
<polygon fill="#63b8ff" stroke="#63b8ff" points="184.92,-125.5 195.51,-125.14 187.01,-118.82 184.92,-125.5"/>
</a>
</g>
</g>
<!-- Node3 -->
<g id="Node000003" class="node">
<title>Node3</title>
<g id="a_Node000003"><a xlink:href="group__fm11rfxx__basic__driver.html#gaeb9e8a8286ef8d16407d5ffd686f819a" target="_top" xlink:title="fm11rfxx block number to sector number">
<polygon fill="white" stroke="#666666" points="298.25,-108 170.5,-108 170.5,-88 298.25,-88 298.25,-108"/>
<text xml:space="preserve" text-anchor="middle" x="234.38" y="-94.5" font-family="Helvetica,sans-Serif" font-size="10.00">fm11rfxx_block_to_sector</text>
</a>
</g>
</g>
<!-- Node1&#45;&gt;Node3 -->
<g id="edge2_Node000001_Node000003" class="edge">
<title>Node1&#45;&gt;Node3</title>
<g id="a_edge2_Node000001_Node000003"><a xlink:title=" ">
<path fill="none" stroke="#63b8ff" d="M134.94,-84.88C142.85,-85.94 150.96,-87.02 158.96,-88.09"/>
<polygon fill="#63b8ff" stroke="#63b8ff" points="158.31,-91.53 168.68,-89.38 159.23,-84.59 158.31,-91.53"/>
</a>
</g>
</g>
<!-- Node4 -->
<g id="Node000004" class="node">
<title>Node4</title>
<g id="a_Node000004"><a xlink:href="group__fm11rfxx__basic__driver.html#ga246def44d935f176deac0f5efd58c821" target="_top" xlink:title="fm11rfxx get the sector&#39;s last block">
<polygon fill="white" stroke="#666666" points="287.75,-70 181,-70 181,-38 287.75,-38 287.75,-70"/>
<text xml:space="preserve" text-anchor="start" x="189" y="-56.5" font-family="Helvetica,sans-Serif" font-size="10.00">fm11rfxx_sector_last</text>
<text xml:space="preserve" text-anchor="middle" x="234.38" y="-44.5" font-family="Helvetica,sans-Serif" font-size="10.00">_block</text>
</a>
</g>
</g>
<!-- Node1&#45;&gt;Node4 -->
<g id="edge3_Node000001_Node000004" class="edge">
<title>Node1&#45;&gt;Node4</title>
<g id="a_edge3_Node000001_Node000004"><a xlink:title=" ">
<path fill="none" stroke="#63b8ff" d="M134.94,-67.12C146.35,-65.59 158.18,-64.02 169.52,-62.51"/>
<polygon fill="#63b8ff" stroke="#63b8ff" points="169.7,-66.01 179.15,-61.22 168.78,-59.08 169.7,-66.01"/>
</a>
</g>
</g>
<!-- Node5 -->
<g id="Node000005" class="node">
<title>Node5</title>
<g id="a_Node000005"><a xlink:href="group__fm11rfxx__basic__driver.html#ga89f2a9a8833c24996411c06e8edd933f" target="_top" xlink:title="fm11rfxx value read">
<polygon fill="white" stroke="#666666" points="287.38,-20 181.38,-20 181.38,0 287.38,0 287.38,-20"/>
<text xml:space="preserve" text-anchor="middle" x="234.38" y="-6.5" font-family="Helvetica,sans-Serif" font-size="10.00">fm11rfxx_value_read</text>
</a>
</g>
</g>
<!-- Node1&#45;&gt;Node5 -->
<g id="edge4_Node000001_Node000005" class="edge">
<title>Node1&#45;&gt;Node5</title>
<g id="a_edge4_Node000001_Node000005"><a xlink:title=" ">
<path fill="none" stroke="#63b8ff" d="M88.65,-65.61C109.04,-55.47 141.45,-40.01 170.5,-29 175.19,-27.22 180.11,-25.5 185.07,-23.86"/>
<polygon fill="#63b8ff" stroke="#63b8ff" points="185.95,-27.25 194.41,-20.88 183.82,-20.58 185.95,-27.25"/>
</a>
</g>
</g>
</g>
</svg>
